Coordinates
version=1
nRows=24
nColumns=26
inDegrees=yes

Units are S.I. units (second, meters, Newtons, ...)
Angles are in degrees.

endheader
time	pelvis_tilt	pelvis_list	pelvis_rotation	pelvis_tx	pelvis_ty	pelvis_tz	hip_flexion_r	hip_adduction_r	hip_rotation_r	knee_angle_r	knee_angle_r_beta	ankle_angle_r	subtalar_angle_r	mtp_angle_r	hip_flexion_l	hip_adduction_l	hip_rotation_l	knee_angle_l	knee_angle_l_beta	ankle_angle_l	subtalar_angle_l	mtp_angle_l	lumbar_extension	lumbar_bending	lumbar_rotation
      0.55000000	      3.23917745	      1.32633341	      4.28697248	      0.65055191	      0.99409543	      0.16812544	     19.67401456	     -2.30178542	    -10.36813327	      8.38971240	      8.38971240	     -1.16245915	      0.00000000	      0.00000000	    -14.01022098	      1.39570370	     -5.75662344	     12.72896808	     12.72896808	     13.83333470	      0.00000000	      0.00000000	    -15.81302331	     -2.24105805	     -3.00926269
      0.55833333	      3.48680024	      1.21181686	      4.60792221	      0.66073827	      0.99348419	      0.16872199	     19.06820799	     -1.98810464	    -10.15873814	      9.04476991	      9.04476991	     -1.02842727	      0.00000000	      0.00000000	    -14.55582566	      0.99028534	     -5.74374569	     13.36501073	     13.36501073	     13.87422275	      0.00000000	      0.00000000	    -15.88699275	     -1.95679046	     -3.24199009
      0.56666667	      3.83554024	      1.11948234	      4.93737014	      0.67116522	      0.99315218	      0.16937331	     18.20649487	     -1.64161731	     -9.86914147	      9.26980803	      9.26980803	     -1.24610243	      0.00000000	      0.00000000	    -15.16361686	      0.58286855	     -5.74556545	     14.09389726	     14.09389726	     13.84071755	      0.00000000	      0.00000000	    -16.05051182	     -1.68892012	     -3.43970822
      0.57500000	      4.15773310	      0.95114880	      5.31269382	      0.68167124	      0.99283155	      0.16984845	     17.24934501	     -1.21884875	     -9.56017251	      9.04909454	      9.04909454	     -2.16347358	      0.00000000	      0.00000000	    -15.68543676	      0.05053906	     -5.68126664	     14.93115719	     14.93115719	     13.81182737	      0.00000000	      0.00000000	    -16.16093721	     -1.29587860	     -3.60517578
      0.58333333	      4.50748113	      0.89959084	      5.65212875	      0.69220407	      0.99279973	      0.17035798	     16.18279686	     -0.91274125	     -9.16757608	      8.58546161	      8.58546161	     -3.66261277	      0.00000000	      0.00000000	    -16.10272157	     -0.36823544	     -5.36983695	     15.98161931	     15.98161931	     13.63843552	      0.00000000	      0.00000000	    -16.31125894	     -1.03565542	     -3.72917750
      0.59166667	      4.83232228	      0.85828442	      5.92992665	      0.70278516	      0.99271253	      0.17096506	     15.13600230	     -0.64695432	     -8.77349577	      8.09976145	      8.09976145	     -5.20307618	      0.00000000	      0.00000000	    -16.49388176	     -0.74042630	     -5.30589350	     17.02005480	     17.02005480	     13.36426757	      0.00000000	      0.00000000	    -16.43936734	     -0.78732651	     -3.74593954
      0.60000000	      5.07392306	      0.88201587	      6.16913174	      0.71334475	      0.99244217	      0.17156897	     14.22478189	     -0.49750873	     -8.43191272	      7.83406689	      7.83406689	     -6.25300393	      0.00000000	      0.00000000	    -16.71017041	     -1.03623856	     -5.11940884	     18.24457437	     18.24457437	     13.07950337	      0.00000000	      0.00000000	    -16.47993642	     -0.61692280	     -3.70630776
      0.60833333	      5.34404255	      0.93853920	      6.28967207	      0.72391040	      0.99235146	      0.17251333	     13.35490708	     -0.36761803	     -8.16805601	      7.79514148	      7.79514148	     -6.75620044	      0.00000000	      0.00000000	    -16.86101096	     -1.26562929	     -4.91284477	     19.63880393	     19.63880393	     12.71985646	      0.00000000	      0.00000000	    -16.57785658	     -0.51749075	     -3.53390476
      0.61666667	      5.50370885	      1.03221728	      6.32848047	      0.73413343	      0.99233107	      0.17333951	     12.80983150	     -0.35238849	     -7.97664533	      8.17596257	      8.17596257	     -7.01799547	      0.00000000	      0.00000000	    -16.68951849	     -1.44070825	     -4.80470801	     21.31785692	     21.31785692	     12.17653010	      0.00000000	      0.00000000	    -16.58946850	     -0.45799064	     -3.23072988
      0.62500000	      5.71025745	      0.92018343	      6.35952071	      0.74419106	      0.99264767	      0.17425203	     12.26906507	     -0.12930157	     -7.77798563	      8.65841980	      8.65841980	     -7.16337982	      0.00000000	      0.00000000	    -16.25235940	     -1.88664333	     -4.80950348	     23.50181729	     23.50181729	     11.59493941	      0.00000000	      0.00000000	    -16.67946495	     -0.15495567	     -2.88565781
      0.63333333	      6.02316327	      0.65927366	      6.28897818	      0.75424859	      0.99342322	      0.17518390	     11.64691869	      0.26710228	     -7.50649948	      9.18937947	      9.18937947	     -7.11796011	      0.00000000	      0.00000000	    -15.77976062	     -2.47745844	     -4.76374273	     25.95833180	     25.95833180	     10.87173795	      0.00000000	      0.00000000	    -16.89164528	      0.31916455	     -2.37687294
      0.64166667	      6.27537440	      0.24316779	      6.26033146	      0.76394108	      0.99412336	      0.17610171	     11.21257414	      0.79460638	     -7.37954239	      9.98129062	      9.98129062	     -6.50552197	      0.00000000	      0.00000000	    -14.96602576	     -3.27721530	     -4.88326681	     28.74262925	     28.74262925	      9.97474594	      0.00000000	      0.00000000	    -17.07301428	      0.97851393	     -1.87687075
      0.65000000	      6.37053081	     -0.31824681	      6.39531881	      0.77318662	      0.99458084	      0.17714953	     11.02728218	      1.44057655	     -7.42744946	     10.89047772	     10.89047772	     -5.74984714	      0.00000000	      0.00000000	    -13.63154022	     -4.33386728	     -4.94213435	     32.02568295	     32.02568295	      8.96910016	      0.00000000	      0.00000000	    -17.11583313	      1.77408247	     -1.51891831
      0.65833333	      6.49903528	     -0.98542290	      6.57862357	      0.78240727	      0.99494164	      0.17820215	     10.75224011	      2.21031086	     -7.47031134	     11.64612310	     11.64612310	     -5.08697693	      0.00000000	      0.00000000	    -12.15610322	     -5.59690269	     -5.05448519	     35.51658629	     35.51658629	      7.74676516	      0.00000000	      0.00000000	    -17.18803260	      2.68517693	     -1.16995350
      0.66666667	      6.63873940	     -1.69793789	      6.78141205	      0.79159711	      0.99515184	      0.17929509	     10.39993158	      3.04997044	     -7.49254219	     12.24431341	     12.24431341	     -4.42755803	      0.00000000	      0.00000000	    -10.59595257	     -6.92632251	     -5.00313232	     39.04763815	     39.04763815	      6.35155485	      0.00000000	      0.00000000	    -17.26223570	      3.62110898	     -0.83875655
      0.67500000	      6.92567333	     -2.32286991	      7.03275610	      0.80092650	      0.99553628	      0.18048224	      9.78016243	      3.85312910	     -7.72348296	     12.63551357	     12.63551357	     -3.87690338	      0.00000000	      0.00000000	     -9.15826909	     -8.18173961	     -4.86838289	     42.50536710	     42.50536710	      4.75723184	      0.00000000	      0.00000000	    -17.48474334	      4.45581953	     -0.61348955
      0.68333333	      6.99778038	     -2.78310421	      7.10457334	      0.80980799	      0.99554584	      0.18163688	      9.45225219	      4.45815142	     -8.15584222	     13.14440404	     13.14440404	     -3.17226733	      0.00000000	      0.00000000	     -7.44216554	     -9.12213680	     -4.63642987	     45.92948276	     45.92948276	      3.03783350	      0.00000000	      0.00000000	    -17.53667756	      5.05168866	     -0.28539514
      0.69166667	      7.09342638	     -3.24167552	      7.20656249	      0.81875562	      0.99555560	      0.18276188	      8.99032720	      5.09146837	     -8.65664984	     13.46220995	     13.46220995	     -2.59436642	      0.00000000	      0.00000000	     -5.85561734	    -10.06667464	     -4.37349402	     49.10056433	     49.10056433	      1.38349723	      0.00000000	      0.00000000	    -17.58945724	      5.63602397	      0.00169149
      0.70000000	      7.19045753	     -3.64621706	      7.27296721	      0.82761796	      0.99561327	      0.18388059	      8.45724016	      5.67975339	     -9.12299404	     13.64696255	     13.64696255	     -1.91201130	      0.00000000	      0.00000000	     -4.36668405	    -10.85876745	     -4.05002670	     51.98370556	     51.98370556	     -0.00877162	      0.00000000	      0.00000000	    -17.64296074	      6.13894771	      0.30068594
      0.70833333	      7.34272821	     -3.98306799	      7.30304755	      0.83651244	      0.99587995	      0.18510040	      7.81892994	      6.21929551	     -9.55066331	     13.75377610	     13.75377610	     -1.34116779	      0.00000000	      0.00000000	     -3.04967382	    -11.49851681	     -3.67810325	     54.55517592	     54.55517592	     -0.62527664	      0.00000000	      0.00000000	    -17.75178750	      6.52574931	      0.63744929
      0.71666667	      7.58203701	     -4.33876649	      7.31034800	      0.84557692	      0.99627669	      0.18645163	      6.98842136	      6.82057815	     -9.89733445	     13.68281726	     13.68281726	     -0.86701985	      0.00000000	      0.00000000	     -1.89597019	    -12.11139037	     -3.24715472	     57.03211403	     57.03211403	      0.21412298	      0.00000000	      0.00000000	    -17.91114336	      6.90633711	      0.99253058
      0.72500000	      7.56408043	     -4.47444759	      7.36010714	      0.85394269	      0.99669159	      0.18766574	      6.54322836	      7.09854355	    -10.24219077	     13.80340748	     13.80340748	     -0.39053571	      0.00000000	      0.00000000	     -0.33341964	    -12.53324001	     -3.01519143	     59.47984849	     59.47984849	      1.48624265	      0.00000000	      0.00000000	    -17.86676805	      7.01000593	      1.23428335
      0.73333333	      7.44106263	     -4.27946853	      7.32539340	      0.86199916	      0.99757232	      0.18863083	      6.18917683	      6.97957603	    -10.39415037	     13.97733760	     13.97733760	      0.10255859	      0.00000000	      0.00000000	      1.19379808	    -12.51778674	     -3.03277504	     61.37166775	     61.37166775	      2.34549857	      0.00000000	      0.00000000	    -17.76868197	      6.74555315	      1.42815918
      0.74166667	      7.49015819	     -4.27720121	      7.20108451	      0.87052084	      0.99856504	      0.18989238	      5.50855055	      7.17246468	    -10.18365768	     13.86456373	     13.86456373	      0.49607022	      0.00000000	      0.00000000	      2.41085977	    -12.60478816	     -2.86456942	     62.91248306	     62.91248306	      2.81540562	      0.00000000	      0.00000000	    -17.79157316	      6.66080344	      1.75209631
